<svg width="127" height="79" viewBox="0 0 127 79" fill="none" xmlns="http://www.w3.org/2000/svg">
<path d="M19.5109 33C15.6472 33 8.79542 31.6664 5.51094 33.2222C2.66548 34.5701 2.66287 39.4173 2.51094 42C2.2751 46.0094 0.207092 49.4211 6.51094 51.2222C10.6062 52.3923 21.3861 56.6942 23.7332 52C26.9972 45.4719 24.5109 32.394 24.5109 25C24.5109 17.6599 25.5109 9.65635 25.5109 2" stroke="white" stroke-width="3" stroke-linecap="round"/>
<path d="M42.511 54H41.511" stroke="white" stroke-width="3" stroke-linecap="round"/>
<path d="M48.511 43C53.7878 43 59.4182 42.453 61.2887 49C61.8515 50.9697 61.511 53.3571 61.511 55.3889C61.511 57.0867 62.1268 52.0303 62.7332 50.4445C63.6771 47.9756 65.2515 45.6248 66.9554 43.6111C69.4854 40.6211 75.8223 41.6939 79.011 43.1111C80.1493 43.6171 82.4424 45.6966 82.511 47C82.6394 49.4411 82.511 56.7778 82.511 54.3334C82.511 49.3525 83.1484 45.0565 87.7332 42C89.1597 41.049 98.0488 37.9968 99.511 40.5556C101.3 43.6869 101.511 45.963 101.511 49.5C101.511 53.4036 104.384 56.6199 105.511 60" stroke="white" stroke-width="3" stroke-linecap="round"/>
<path d="M123.511 42C122.928 37.3356 113.924 40.9568 112.011 42.4445C107.711 45.7891 107.511 49.8069 107.511 55C107.511 65.4645 119.584 61.8832 120.511 54C120.8 51.547 123.044 45.7834 124.455 43.6667C126.037 41.2938 124.511 49.3703 124.511 52.2223C124.511 53.988 125.261 58.3192 124.289 59.7778C122.577 62.3461 120.995 69.3924 118.011 70.0556C112.864 71.1992 109.569 77 103.511 77" stroke="white" stroke-width="3" stroke-linecap="round"/>
</svg>
